Coordinates
version=1
nRows=7
nColumns=42
inDegrees=yes

Units are S.I. units (second, meters, Newtons, ...)
If the header above contains a line with 'inDegrees', this indicates whether rotational values are in degrees (yes) or radians (no).

endheader
time	pelvis_tilt	pelvis_list	pelvis_rotation	pelvis_tx	pelvis_ty	pelvis_tz	hip_flexion_r	hip_adduction_r	hip_rotation_r	knee_angle_r	knee_adduction_r	knee_angle_r_beta	ankle_angle_r	subtalar_angle_r	mtp_angle_r	hip_flexion_l	hip_adduction_l	hip_rotation_l	knee_angle_l	knee_adduction_l	knee_angle_l_beta	ankle_angle_l	subtalar_angle_l	mtp_angle_l	lumbar_extension	lumbar_bending	lumbar_rotation	arm_flex_r	arm_add_r	arm_rot_r	elbow_flex_r	pro_sup_r	wrist_flex_r	wrist_dev_r	arm_flex_l	arm_add_l	arm_rot_l	elbow_flex_l	pro_sup_l	wrist_flex_l	wrist_dev_l
      0.30000000	     16.86121586	      1.38228823	     -0.62978712	     -0.90806950	      0.99370969	     -0.14980377	      5.23480114	     -2.51112295	     -5.59933955	     41.82882920	      0.92965282	      0.73005079	      6.89621796	     -4.98828125	     -9.63027904	    -21.51475923	      4.48548577	     -9.10677244	      4.84193551	      0.41093318	      0.08450772	     10.03299459	     19.72781050	     -9.63027904	    -38.12315043	     -1.06298911	      1.57557922	     -1.30593192	    -19.14401652	     -5.77663795	     66.55983732	     90.00000001	      0.00000000	      0.00000000	      3.77396617	    -18.37376207	      0.47957675	     65.22523714	     90.00000001	      0.00000000	      0.00000000
      0.31000000	     16.91195993	      1.54738679	     -0.37692057	     -0.89537600	      0.99201232	     -0.15015542	      5.93274536	     -2.57769004	     -6.17807568	     38.75735877	      0.76975770	      0.67644352	      6.66474268	     -4.66530450	     -9.54812873	    -22.58801096	      4.54628052	     -9.12664769	      4.49753164	      0.53402877	      0.07849674	     10.65795359	     20.30370245	     -9.54812873	    -38.19087302	     -1.03689890	      1.45689430	     -1.69492828	    -19.11687399	     -6.34687736	     66.60455721	     90.00000001	      0.00000000	      0.00000000	      4.50575233	    -18.83621327	      1.02032269	     65.92925460	     90.00000001	      0.00000000	      0.00000000
      0.32000000	     16.92880386	      1.76504553	     -0.14503039	     -0.88270648	      0.99003664	     -0.15043507	      6.61994506	     -2.67710216	     -7.13131766	     35.61706730	      0.32899016	      0.62163509	      6.47461549	     -3.73892815	     -9.46367744	    -23.56456695	      4.65826380	     -9.06172242	      4.27377225	      0.64209530	      0.07459140	     11.31972189	     20.71427367	     -9.46367744	    -38.23116307	     -1.08006446	      1.31871592	     -2.04078530	    -19.05914334	     -6.89204931	     66.58999566	     90.00000001	      0.00000000	      0.00000000	      5.26340864	    -19.25956503	      1.50142144	     66.59740414	     90.00000001	      0.00000000	      0.00000000
      0.33000000	     16.75841839	      2.15207465	     -0.00784772	     -0.87023627	      0.98752138	     -0.15065934	      7.52655354	     -3.02138993	     -8.11418851	     32.55268088	     -0.01422862	      0.56815146	      6.18716963	     -2.63579238	     -9.41511250	    -24.23049699	      5.02769875	     -8.82354275	      4.25577392	      0.61864742	      0.07427727	     12.17139850	     20.96247713	     -9.41511250	    -38.09443064	     -1.33352963	      1.12523638	     -2.25330044	    -18.94841584	     -7.38603643	     66.39421645	     90.00000001	      0.00000000	      0.00000000	      6.02602754	    -19.68828059	      1.99846073	     67.22395217	     90.00000001	      0.00000000	      0.00000000
      0.34000000	     16.87437012	      2.34313012	      0.29111318	     -0.85731752	      0.98526352	     -0.15081206	      7.96217236	     -3.02925752	    -10.17731392	     29.28591999	     -1.01559787	      0.51113573	      6.16951831	     -0.25932138	     -9.33349085	    -25.23060911	      5.02161718	     -8.59958622	      4.26437022	      0.79194734	      0.07442730	     12.77394236	     21.11588184	     -9.33349085	    -38.23014508	     -1.32244974	      1.01438988	     -2.67900394	    -18.87428544	     -7.97165096	     66.47448395	     90.00000001	      0.00000000	      0.00000000	      6.86301855	    -20.13312583	      2.64598250	     67.72980047	     90.00000001	      0.00000000	      0.00000000
      0.35000000	     16.77864454	      2.73936115	      0.52779428	     -0.84457109	      0.98252227	     -0.15100451	      8.67379064	     -3.34608757	    -12.22205001	     26.23452848	     -1.77638368	      0.45787890	      6.05648612	      2.46341939	     -9.25074946	    -25.90451340	      5.31935732	     -8.20617045	      4.44977715	      0.77609849	      0.07766326	     13.56205365	     21.14718427	     -9.25074946	    -38.15908624	     -1.53388242	      0.78888041	     -2.95186090	    -18.73787244	     -8.47782409	     66.35919555	     90.00000001	      0.00000000	      0.00000000	      7.68694870	    -20.57249403	      3.28226326	     68.21500693	     90.00000001	      0.00000000	      0.00000000
      0.36000000	     16.65157483	      3.15216186	      0.76654601	     -0.83170548	      0.97964113	     -0.15115698	      9.37169603	     -3.70644840	    -14.36343457	     23.30649741	     -2.38283833	      0.40677512	      5.81940513	      5.26680205	     -9.17391045	    -26.50720632	      5.61499443	     -7.76740478	      4.74257950	      0.77410584	      0.08277363	     14.34385516	     21.09869396	     -9.17391045	    -38.04809353	     -1.76452902	      0.56217101	     -3.22548471	    -18.59018934	     -8.94956668	     66.20840255	     90.00000001	      0.00000000	      0.00000000	      8.49487267	    -20.98460335	      3.93525829	     68.64028685	     90.00000001	      0.00000000	      0.00000000
